# xmcd
#
# Track frame offsets:
#	150
#	15812
#	39587
#	64337
#	89012
#	113312
#	133937
#	162212
#	188612
#	209237
#	229712
#	250787
#	271787
#
# Disc length: 3898 seconds
#
# Revision: 1
# Processed by: cddbd v1.5.1PL0 Copyright (c) Steve Scherf et al.
# Submitted via: audiograbber 1.83.01
#
DISCID=aa0f380d
DTITLE=Diverse - Blues forever
DYEAR=1900
DGENRE=Blues
TTITLE0=Way down yonder in New Orleans
TTITLE1=Jamp Jubilee
TTITLE2=Ain't misbehavin
TTITLE3=In a mellow tone
TTITLE4=Summertime
TTITLE5=Swing that music
TTITLE6=Spanish Castles
TTITLE7=Blues Forever
TTITLE8=Ia you is or is you ain't my baby
TTITLE9=Sophisticated lady
TTITLE10=Clarinet marmalade
TTITLE11=Copenhagen
TTITLE12=Bye bye Blues
EXTD=
EXTT0=
EXTT1=
EXTT2=
EXTT3=
EXTT4=
EXTT5=
EXTT6=
EXTT7=
EXTT8=
EXTT9=
EXTT10=
EXTT11=
EXTT12=
PLAYORDER=
